<?xml version="1.0" encoding="utf-8"?>
<!-- Generator: Adobe Illustrator 15.0.2, SVG Export Plug-In . SVG Version: 6.00 Build 0)  -->
<!DOCTYPE svg PUBLIC "-//W3C//DTD SVG 1.1//EN" "http://www.w3.org/Graphics/SVG/1.1/DTD/svg11.dtd">
<svg version="1.1" id="Layer_1" xmlns="http://www.w3.org/2000/svg" xmlns:xlink="http://www.w3.org/1999/xlink" x="0px" y="0px"
	 width="34px" height="34px" viewBox="60.75 13.5 34 34" enable-background="new 60.75 13.5 34 34" xml:space="preserve">
<path fill="#FFFFFF" stroke="#E30613" stroke-width="3" stroke-miterlimit="10" d="M209.5-116.329c0,1.205-2.001,2.181-4.47,2.181
	H4.219c-2.468,0-4.469-0.977-4.469-2.181v-35.99c0-1.205,2.001-2.181,4.469-2.181H205.03c2.469,0,4.47,0.977,4.47,2.181V-116.329z"
	/>
<g>
	<path d="M77.003,42.096c-0.312,0-0.604-0.189-0.722-0.498c-1.684-4.465-5.294-15.616-5.865-17.728
		c-0.398-1.479-0.896-3.322-0.075-4.697c0.429-0.718,1.156-1.202,2.162-1.438c3.138-0.738,4.269,2.527,4.813,4.098
		c0.057,0.165,0.11,0.319,0.162,0.459c0.372,1.01,1.635,3.895,2.405,5.637c0.286-0.322,0.657-0.622,1.133-0.808
		c0.725-0.282,1.526-0.251,2.393,0.092c0.32-0.738,0.95-1.363,1.75-1.677c0.882-0.347,1.818-0.251,2.653,0.243
		c0.342-0.721,0.994-1.543,2.231-1.862c0.812-0.21,1.593-0.105,2.258,0.301c1.391,0.847,1.849,2.698,1.896,2.906
		c0.094,0.415-0.165,0.829-0.58,0.923c-0.411,0.097-0.827-0.165-0.923-0.58c-0.091-0.391-0.485-1.505-1.198-1.936
		c-0.311-0.187-0.658-0.228-1.066-0.122c-1.286,0.332-1.443,1.715-1.449,1.772c-0.031,0.305-0.238,0.565-0.53,0.657
		c-0.288,0.095-0.609,0.011-0.813-0.219c-0.595-0.672-1.276-0.901-1.916-0.65c-0.586,0.229-1.018,0.814-1.005,1.359
		c0.008,0.282-0.141,0.546-0.387,0.687c-0.245,0.141-0.548,0.137-0.788-0.013c-0.796-0.492-1.455-0.643-1.959-0.45
		c-0.748,0.287-1.045,1.274-1.048,1.285c-0.092,0.309-0.366,0.531-0.688,0.554s-0.625-0.158-0.757-0.452
		c-0.101-0.228-2.497-5.591-3.059-7.115c-0.054-0.148-0.11-0.313-0.171-0.486c-0.794-2.284-1.507-3.455-3.005-3.104
		c-0.592,0.14-0.983,0.378-1.192,0.729c-0.485,0.813-0.082,2.307,0.241,3.506c0.565,2.091,4.147,13.151,5.82,17.586
		c0.149,0.398-0.052,0.843-0.451,0.993C77.186,42.081,77.094,42.096,77.003,42.096z"/>
</g>
<g>
	<path d="M86.032,26.871c-0.426,0-0.771-0.344-0.771-0.771V15.231H62.055c-0.425,0-0.771-0.344-0.771-0.77
		c0-0.427,0.346-0.771,0.771-0.771h23.978c0.426,0,0.77,0.344,0.77,0.771v11.639C86.802,26.526,86.458,26.871,86.032,26.871z"/>
</g>
<g>
	<path d="M62.055,31.039c-0.425,0-0.771-0.346-0.771-0.771V14.462c0-0.427,0.346-0.771,0.771-0.771s0.771,0.344,0.771,0.771v15.807
		C62.825,30.693,62.479,31.039,62.055,31.039z"/>
</g>
<g>
	<path d="M73.226,31.039H62.055c-0.425,0-0.771-0.346-0.771-0.771c0-0.426,0.346-0.771,0.771-0.771h11.171
		c0.425,0,0.77,0.345,0.77,0.771C73.995,30.693,73.65,31.039,73.226,31.039z"/>
</g>
<g>
	<path fill="#E30613" d="M78.332,19.405c-0.16,0-0.323-0.049-0.461-0.153c-0.342-0.255-0.411-0.737-0.155-1.078l1.018-1.36
		c0.256-0.341,0.738-0.41,1.078-0.155c0.342,0.255,0.41,0.738,0.156,1.078l-1.018,1.36C78.798,19.3,78.566,19.405,78.332,19.405z"/>
</g>
<g>
	<path fill="#E30613" d="M80.936,24.235c-0.106,0-0.215-0.022-0.317-0.069l-1.547-0.703c-0.389-0.177-0.56-0.633-0.384-1.02
		s0.631-0.56,1.02-0.383l1.547,0.703c0.389,0.176,0.559,0.633,0.384,1.02C81.51,24.067,81.229,24.235,80.936,24.235z"/>
</g>
<g>
	<path fill="#E30613" d="M78.863,21.48c-0.345,0-0.656-0.231-0.746-0.58c-0.105-0.412,0.143-0.831,0.556-0.938l2.136-0.548
		c0.413-0.104,0.831,0.144,0.938,0.556c0.104,0.413-0.144,0.832-0.558,0.938l-2.135,0.547C78.99,21.473,78.926,21.48,78.863,21.48z"
		/>
</g>
<g>
	<path fill="#E30613" d="M67.945,28.328c-0.161,0-0.324-0.05-0.462-0.153c-0.34-0.255-0.409-0.738-0.154-1.079l1.019-1.359
		c0.255-0.341,0.739-0.41,1.079-0.154c0.34,0.255,0.409,0.737,0.154,1.078l-1.019,1.36C68.411,28.222,68.18,28.328,67.945,28.328z"
		/>
</g>
<g>
	<path fill="#E30613" d="M67.907,22.842c-0.107,0-0.215-0.021-0.318-0.068l-1.548-0.703c-0.388-0.177-0.559-0.634-0.383-1.021
		s0.631-0.559,1.02-0.383l1.548,0.703c0.388,0.176,0.56,0.633,0.382,1.021C68.479,22.674,68.199,22.842,67.907,22.842z"/>
</g>
<g>
	<path fill="#E30613" d="M66.296,25.441c-0.343,0-0.656-0.23-0.745-0.579c-0.106-0.412,0.143-0.832,0.554-0.938l2.137-0.548
		c0.411-0.105,0.832,0.143,0.938,0.555s-0.143,0.832-0.555,0.938l-2.136,0.548C66.425,25.434,66.36,25.441,66.296,25.441z"/>
</g>
<g>
	<path d="M78.332,47.309c-0.082,0-0.164-0.014-0.246-0.041c-2.407-0.814-4.185-2.39-5.143-4.558
		c-1.22-2.765-1.033-6.374,0.512-9.899c0.171-0.39,0.625-0.567,1.016-0.396c0.391,0.17,0.568,0.625,0.396,1.016
		c-1.372,3.131-1.56,6.287-0.513,8.658c0.788,1.786,2.211,3.038,4.226,3.719c0.403,0.137,0.62,0.574,0.483,0.978
		C78.953,47.105,78.654,47.309,78.332,47.309z"/>
</g>
<text transform="matrix(1 0 0 1 60.5 -128.2397)" font-family="'AlegreyaSans-Regular'" font-size="22.6015">Simulate Touch</text>
</svg>
